<svg aria-hidden="true" style="width:0;height:0;position:absolute;overflow:hidden" xmlns="http://www.w3.org/2000/svg"><defs><symbol id="icon-card" viewBox="0 0 32 32"><path d="M28.501 6.224H3.386a2.307 2.307 0 0 0-2.304 2.304V23.36a2.306 2.306 0 0 0 2.304 2.303h25.115a2.305 2.305 0 0 0 2.303-2.303V8.528a2.306 2.306 0 0 0-2.303-2.304zM2.04 8.528c0-.743.604-1.347 1.347-1.347h25.115c.743 0 1.347.604 1.347 1.347v1.061H2.041V8.528zm27.808 14.831c0 .742-.604 1.347-1.347 1.347H3.386a1.348 1.348 0 0 1-1.347-1.347v-9.496h27.808v9.496zm0-10.453H2.04v-2.361h27.808v2.361z"/><path d="M5.706 22.821c.92 0 1.668-.748 1.668-1.667s-.748-1.668-1.668-1.668a1.668 1.668 0 0 0 0 3.335zm0-2.379a.711.711 0 1 1 0 1.42.711.711 0 0 1 0-1.42zM9.273 21.688H22.75a.478.478 0 1 0 0-.956H9.273a.478.478 0 1 0 0 .956z"/></symbol><symbol id="icon-man" viewBox="0 0 32 32"><path d="M15.936 17.243c-6.661 0-12.08 5.418-12.08 12.08a.49.49 0 0 0 .478.478h23.171a.49.49 0 0 0 .478-.478c.032-6.661-5.386-12.08-12.048-12.08zm0 .956c1.466 0 2.9.287 4.175.829l-4.016 2.964-4.303-2.964a10.564 10.564 0 0 1 4.143-.829zM4.845 28.845c.159-4.048 2.55-7.554 5.928-9.371l5.068 3.474a.508.508 0 0 0 .255.096.513.513 0 0 0 .287-.096l4.717-3.474a11.056 11.056 0 0 1 5.928 9.371H4.845zM15.745 15.936c3.825 0 6.948-3.123 6.948-6.948S19.57 2.04 15.745 2.04 8.797 5.163 8.797 8.988a6.943 6.943 0 0 0 6.948 6.948zm0-12.908a5.978 5.978 0 0 1 5.578 3.825c-.287-.159-.637-.351-.956-.542-1.339-.797-2.263-1.307-2.869-1.243-1.211.096-1.912.574-2.677 1.052-.414.255-.861.542-1.402.765l-.159.064c-1.179.478-1.912.797-3.347.956.478-2.773 2.9-4.877 5.833-4.877zM9.753 8.861c1.721-.159 2.582-.51 3.825-1.052l.159-.064c.637-.255 1.116-.574 1.562-.861.701-.446 1.307-.829 2.263-.892.351-.032 1.562.701 2.295 1.116.733.446 1.339.797 1.785.924.064.319.096.637.096.956 0 3.283-2.677 5.992-5.992 5.992s-5.992-2.677-5.992-5.992v-.127z"/></symbol><symbol id="icon-percent" viewBox="0 0 32 32"><path d="M15.936 30.725c-8.159 0-14.789-6.629-14.789-14.789S7.776 1.147 15.936 1.147s14.789 6.629 14.789 14.789c0 8.159-6.629 14.789-14.789 14.789zm0-28.621c-7.618 0-13.833 6.215-13.833 13.833S8.318 29.77 15.936 29.77s13.833-6.215 13.833-13.833S23.554 2.104 15.936 2.104z"/><path d="M10.39 20.462c-1.53 0-2.741-1.785-2.741-4.08s1.211-4.08 2.741-4.08 2.741 1.785 2.741 4.08-1.179 4.08-2.741 4.08zm0-7.203c-.956 0-1.785 1.434-1.785 3.124s.829 3.123 1.785 3.123 1.785-1.434 1.785-3.123-.797-3.123-1.785-3.123zM16.319 20.462c-1.53 0-2.741-1.785-2.741-4.08s1.211-4.08 2.741-4.08 2.741 1.785 2.741 4.08-1.211 4.08-2.741 4.08zm0-7.203c-.956 0-1.785 1.434-1.785 3.124s.829 3.123 1.785 3.123 1.785-1.434 1.785-3.123-.797-3.123-1.785-3.123zM6.725 20.462a.49.49 0 0 1-.478-.478v-6.056l-1.116.861c-.223.159-.51.127-.669-.096s-.128-.51.096-.669l1.88-1.466a.502.502 0 0 1 .51-.064.499.499 0 0 1 .255.414v7.044c0 .287-.223.51-.478.51zM21.291 20.398a.36.36 0 0 1-.255-.096c-.223-.159-.287-.446-.128-.669l4.653-6.916c.159-.223.446-.287.669-.127s.287.446.128.669l-4.685 6.916a.452.452 0 0 1-.382.223zM21.833 16.064a1.952 1.952 0 0 1-1.944-1.944c0-1.052.861-1.944 1.944-1.944 1.052 0 1.944.861 1.944 1.944s-.892 1.944-1.944 1.944zm0-2.901c-.542 0-.988.446-.988.988s.446.988.988.988.988-.446.988-.988-.446-.988-.988-.988zM25.88 20.048a1.952 1.952 0 0 1-1.944-1.944c0-1.052.861-1.944 1.944-1.944 1.052 0 1.944.861 1.944 1.944s-.861 1.944-1.944 1.944zm0-2.901c-.542 0-.988.446-.988.988s.446.988.988.988a.993.993 0 0 0 .988-.988.973.973 0 0 0-.988-.988z"/></symbol><symbol id="icon-phone" viewBox="0 0 32 32"><path d="M22.088 2.741H8.925c-1.689 0-3.092 1.371-3.092 3.06v21.1c0 1.689 1.371 3.06 3.092 3.06h13.163c1.689 0 3.092-1.371 3.092-3.06v-21.1c0-1.689-1.371-3.06-3.092-3.06zM24.223 26.9c0 1.179-.956 2.104-2.135 2.104H8.925c-1.179 0-2.135-.956-2.135-2.104V5.8c0-1.179.956-2.104 2.135-2.104h13.163c1.179 0 2.135.956 2.135 2.104v21.1z"/><path d="M19.41 5.769h-7.872c-.255 0-.478.223-.478.478s.223.478.478.478h7.872c.255 0 .478-.223.478-.478s-.223-.478-.478-.478zM15.49 24.032c-.892 0-1.594.733-1.594 1.594 0 .414.159.829.478 1.116.287.287.701.446 1.116.446.892 0 1.594-.733 1.594-1.594s-.701-1.562-1.594-1.562zm.032 2.231c-.159 0-.319-.064-.446-.191s-.191-.287-.191-.446c0-.351.287-.637.637-.637.351 0 .637.287.637.637s-.287.637-.637.637z"/></symbol><symbol id="icon-menu" viewBox="0 0 32 32"><path d="M4 10h24a2 2 0 0 0 0-4H4a2 2 0 0 0 0 4zm24 4H4a2 2 0 0 0 0 4h24a2 2 0 0 0 0-4zm0 8H4a2 2 0 0 0 0 4h24a2 2 0 0 0 0-4z"/></symbol><symbol id="icon-close" viewBox="0 0 24 24"><path d="M23 12c0-3.037-1.232-5.789-3.222-7.778S15.037 1 12 1 6.211 2.232 4.222 4.222 1 8.963 1 12s1.232 5.789 3.222 7.778S8.963 23 12 23s5.789-1.232 7.778-3.222S23 15.037 23 12zm-2 0c0 2.486-1.006 4.734-2.636 6.364S14.486 21 12 21s-4.734-1.006-6.364-2.636S3 14.486 3 12s1.006-4.734 2.636-6.364S9.514 3 12 3s4.734 1.006 6.364 2.636S21 9.514 21 12zM8.293 9.707 10.586 12l-2.293 2.293a.999.999 0 1 0 1.414 1.414L12 13.414l2.293 2.293a.999.999 0 1 0 1.414-1.414L13.414 12l2.293-2.293a.999.999 0 1 0-1.414-1.414L12 10.586 9.707 8.293a.999.999 0 1 0-1.414 1.414z"/></symbol><symbol id="icon-atom" viewBox="0 0 24 24"><path stroke-width=".48" d="M13.68 12.72c0 5.832-.645 10.56-1.44 10.56s-1.44-4.728-1.44-10.56c0-5.832.645-10.56 1.44-10.56s1.44 4.728 1.44 10.56z"/><path stroke-width=".48" d="M12.826 11.404c5.328 2.372 9.385 4.884 9.061 5.611s-4.905-.607-10.233-2.98c-5.328-2.372-9.385-4.884-9.061-5.611s4.905.607 10.233 2.98z"/><path stroke-width=".48" d="M12.826 14.035c-5.328 2.372-9.909 3.706-10.233 2.98s3.733-3.239 9.061-5.611c5.328-2.372 9.909-3.706 10.233-2.98s-3.733 3.238-9.061 5.611z"/><path stroke-width=".48" d="M22.8 12.72c0 5.832-4.728 10.56-10.56 10.56S1.68 18.552 1.68 12.72c0-5.832 4.728-10.56 10.56-10.56S22.8 6.888 22.8 12.72z"/><path stroke-width=".48" d="M15.36 12.72a3.12 3.12 0 1 1-6.24 0 3.12 3.12 0 0 1 6.24 0zM14.4 2.16a2.16 2.16 0 1 1-4.32 0 2.16 2.16 0 0 1 4.32 0zM4.8 17.04a2.16 2.16 0 1 1-4.32 0 2.16 2.16 0 0 1 4.32 0zM24 17.04a2.16 2.16 0 1 1-4.32 0 2.16 2.16 0 0 1 4.32 0z"/></symbol></defs></svg>