<svg aria-hidden="true" style="width:0;height:0;position:absolute;overflow:hidden" xmlns="http://www.w3.org/2000/svg"><defs><symbol id="icon-atom" viewBox="0 0 32 32"><path fill="none" stroke="#66899a" style="stroke:var(--color1,#66899a)" stroke-width=".64" d="M18.56 16.96c0 7.776-.86 14.08-1.92 14.08s-1.92-6.304-1.92-14.08.86-14.08 1.92-14.08 1.92 6.304 1.92 14.08z"/><path fill="none" stroke="#e1d85d" style="stroke:var(--color2,#e1d85d)" stroke-width=".64" d="M17.421 15.206c7.104 3.163 12.513 6.512 12.082 7.481s-6.54-.81-13.644-3.973-12.513-6.512-12.082-7.481 6.54.81 13.644 3.973z"/><path fill="none" stroke="#80a3cf" style="stroke:var(--color3,#80a3cf)" stroke-width=".64" d="M17.421 18.714c-7.104 3.163-13.212 4.942-13.644 3.973s4.978-4.318 12.082-7.481c7.104-3.163 13.212-4.942 13.644-3.973s-4.978 4.318-12.082 7.481z"/><path fill="none" stroke="#4b541f" style="stroke:var(--color4,#4b541f)" stroke-width=".64" d="M30.72 16.96c0 7.776-6.304 14.08-14.08 14.08S2.56 24.736 2.56 16.96 8.864 2.88 16.64 2.88s14.08 6.304 14.08 14.08z"/><path fill="#80a3cf" style="fill:var(--color3,#80a3cf);stroke:var(--color5,#fff)" stroke="#fff" stroke-width=".64" d="M20.8 16.96a4.16 4.16 0 1 1-8.321-.001 4.16 4.16 0 0 1 8.321.001z"/><path fill="#66899a" style="fill:var(--color1,#66899a);stroke:var(--color5,#fff)" stroke="#fff" stroke-width=".64" d="M19.52 2.88a2.88 2.88 0 1 1-5.759.001 2.88 2.88 0 0 1 5.759-.001zM6.72 22.72a2.88 2.88 0 1 1-5.759.001 2.88 2.88 0 0 1 5.759-.001zM32.32 22.72a2.88 2.88 0 1 1-5.759.001 2.88 2.88 0 0 1 5.759-.001z"/></symbol></defs></svg>