<svg aria-hidden="true" style="position: absolute; width: 0; height: 0; overflow: hidden;" version="1.1" xmlns="http://www.w3.org/2000/svg" xmlns:xlink="http://www.w3.org/1999/xlink">
<defs>
<symbol id="icon-card" viewBox="0 0 32 32">
<path d="M28.501 6.224h-25.115c-1.27 0-2.304 1.033-2.304 2.304v14.832c0 1.27 1.033 2.303 2.304 2.303h25.115c1.27 0 2.303-1.033 2.303-2.303v-14.832c0-1.27-1.033-2.304-2.303-2.304zM2.040 8.528c0-0.743 0.604-1.347 1.347-1.347h25.115c0.743 0 1.347 0.604 1.347 1.347v1.061h-27.808v-1.061zM29.848 23.359c0 0.742-0.604 1.347-1.347 1.347h-25.115c-0.743 0-1.347-0.604-1.347-1.347v-9.496h27.808v9.496zM29.848 12.906h-27.808v-2.361h27.808v2.361z"></path>
<path d="M5.706 22.821c0.92 0 1.668-0.748 1.668-1.667s-0.748-1.668-1.668-1.668c-0.919 0-1.667 0.748-1.667 1.668s0.748 1.667 1.667 1.667zM5.706 20.442c0.392 0 0.711 0.319 0.711 0.711s-0.319 0.71-0.711 0.71c-0.392 0-0.711-0.319-0.711-0.71s0.319-0.711 0.711-0.711z"></path>
<path d="M9.273 21.688h13.477c0.264 0 0.478-0.214 0.478-0.478s-0.214-0.478-0.478-0.478h-13.477c-0.264 0-0.478 0.214-0.478 0.478s0.214 0.478 0.478 0.478z"></path>
</symbol>
<symbol id="icon-man" viewBox="0 0 32 32">
<path d="M15.936 17.243c-6.661 0-12.080 5.418-12.080 12.080 0 0.255 0.223 0.478 0.478 0.478h23.171c0.255 0 0.478-0.223 0.478-0.478 0.032-6.661-5.386-12.080-12.048-12.080zM15.936 18.199c1.466 0 2.9 0.287 4.175 0.829l-4.016 2.964-4.303-2.964c1.275-0.542 2.677-0.829 4.143-0.829zM4.845 28.845c0.159-4.048 2.55-7.554 5.928-9.371l5.068 3.474c0.096 0.064 0.191 0.096 0.255 0.096 0.096 0 0.191-0.032 0.287-0.096l4.717-3.474c3.41 1.785 5.769 5.291 5.928 9.371h-22.183z"></path>
<path d="M15.745 15.936c3.825 0 6.948-3.123 6.948-6.948s-3.123-6.948-6.948-6.948-6.948 3.123-6.948 6.948c0 3.857 3.123 6.948 6.948 6.948zM15.745 3.028c2.55 0 4.717 1.594 5.578 3.825-0.287-0.159-0.637-0.351-0.956-0.542-1.339-0.797-2.263-1.307-2.869-1.243-1.211 0.096-1.912 0.574-2.677 1.052-0.414 0.255-0.861 0.542-1.402 0.765l-0.159 0.064c-1.179 0.478-1.912 0.797-3.347 0.956 0.478-2.773 2.9-4.877 5.833-4.877zM9.753 8.861c1.721-0.159 2.582-0.51 3.825-1.052l0.159-0.064c0.637-0.255 1.116-0.574 1.562-0.861 0.701-0.446 1.307-0.829 2.263-0.892 0.351-0.032 1.562 0.701 2.295 1.116 0.733 0.446 1.339 0.797 1.785 0.924 0.064 0.319 0.096 0.637 0.096 0.956 0 3.283-2.677 5.992-5.992 5.992s-5.992-2.677-5.992-5.992c0-0.032 0-0.064 0-0.127z"></path>
</symbol>
<symbol id="icon-percent" viewBox="0 0 32 32">
<path d="M15.936 30.725c-8.159 0-14.789-6.629-14.789-14.789s6.629-14.789 14.789-14.789 14.789 6.629 14.789 14.789c0 8.159-6.629 14.789-14.789 14.789zM15.936 2.104c-7.618 0-13.833 6.215-13.833 13.833s6.215 13.833 13.833 13.833 13.833-6.215 13.833-13.833c0-7.618-6.215-13.833-13.833-13.833z"></path>
<path d="M10.39 20.462c-1.53 0-2.741-1.785-2.741-4.080s1.211-4.080 2.741-4.080c1.53 0 2.741 1.785 2.741 4.080s-1.179 4.080-2.741 4.080zM10.39 13.259c-0.956 0-1.785 1.434-1.785 3.124s0.829 3.123 1.785 3.123c0.956 0 1.785-1.434 1.785-3.123s-0.797-3.123-1.785-3.123z"></path>
<path d="M16.319 20.462c-1.53 0-2.741-1.785-2.741-4.080s1.211-4.080 2.741-4.080c1.53 0 2.741 1.785 2.741 4.080s-1.211 4.080-2.741 4.080zM16.319 13.259c-0.956 0-1.785 1.434-1.785 3.124s0.829 3.123 1.785 3.123c0.956 0 1.785-1.434 1.785-3.123s-0.797-3.123-1.785-3.123z"></path>
<path d="M6.725 20.462c-0.255 0-0.478-0.223-0.478-0.478v-6.056l-1.116 0.861c-0.223 0.159-0.51 0.127-0.669-0.096s-0.128-0.51 0.096-0.669l1.88-1.466c0.159-0.127 0.351-0.127 0.51-0.064 0.159 0.096 0.255 0.255 0.255 0.414v7.044c0 0.287-0.223 0.51-0.478 0.51z"></path>
<path d="M21.291 20.398c-0.096 0-0.191-0.032-0.255-0.096-0.223-0.159-0.287-0.446-0.128-0.669l4.653-6.916c0.159-0.223 0.446-0.287 0.669-0.127s0.287 0.446 0.128 0.669l-4.685 6.916c-0.096 0.159-0.255 0.223-0.382 0.223z"></path>
<path d="M21.833 16.064c-1.052 0-1.944-0.861-1.944-1.944 0-1.052 0.861-1.944 1.944-1.944 1.052 0 1.944 0.861 1.944 1.944s-0.892 1.944-1.944 1.944zM21.833 13.163c-0.542 0-0.988 0.446-0.988 0.988s0.446 0.988 0.988 0.988c0.542 0 0.988-0.446 0.988-0.988s-0.446-0.988-0.988-0.988z"></path>
<path d="M25.88 20.048c-1.052 0-1.944-0.861-1.944-1.944 0-1.052 0.861-1.944 1.944-1.944 1.052 0 1.944 0.861 1.944 1.944s-0.861 1.944-1.944 1.944zM25.88 17.147c-0.542 0-0.988 0.446-0.988 0.988s0.446 0.988 0.988 0.988c0.542 0 0.988-0.446 0.988-0.988 0-0.574-0.446-0.988-0.988-0.988z"></path>
</symbol>
<symbol id="icon-phone" viewBox="0 0 32 32">
<path d="M22.088 2.741h-13.163c-1.689 0-3.092 1.371-3.092 3.060v21.1c0 1.689 1.371 3.060 3.092 3.060h13.163c1.689 0 3.092-1.371 3.092-3.060v-21.1c0-1.689-1.371-3.060-3.092-3.060zM24.223 26.9c0 1.179-0.956 2.104-2.135 2.104h-13.163c-1.179 0-2.135-0.956-2.135-2.104v-21.1c0-1.179 0.956-2.104 2.135-2.104h13.163c1.179 0 2.135 0.956 2.135 2.104v21.1z"></path>
<path d="M19.41 5.769h-7.872c-0.255 0-0.478 0.223-0.478 0.478s0.223 0.478 0.478 0.478h7.872c0.255 0 0.478-0.223 0.478-0.478s-0.223-0.478-0.478-0.478z"></path>
<path d="M15.49 24.032c-0.892 0-1.594 0.733-1.594 1.594 0 0.414 0.159 0.829 0.478 1.116 0.287 0.287 0.701 0.446 1.116 0.446 0 0 0 0 0 0 0.892 0 1.594-0.733 1.594-1.594s-0.701-1.562-1.594-1.562zM15.522 26.263c0 0 0 0 0 0-0.159 0-0.319-0.064-0.446-0.191s-0.191-0.287-0.191-0.446c0-0.351 0.287-0.637 0.637-0.637 0 0 0 0 0 0 0.351 0 0.637 0.287 0.637 0.637s-0.287 0.637-0.637 0.637z"></path>
</symbol>
<symbol id="icon-menu" viewBox="0 0 32 32">
<path d="M4 10h24c1.104 0 2-0.896 2-2s-0.896-2-2-2h-24c-1.104 0-2 0.896-2 2s0.896 2 2 2zM28 14h-24c-1.104 0-2 0.896-2 2s0.896 2 2 2h24c1.104 0 2-0.896 2-2s-0.896-2-2-2zM28 22h-24c-1.104 0-2 0.896-2 2s0.896 2 2 2h24c1.104 0 2-0.896 2-2s-0.896-2-2-2z"></path>
</symbol>
<symbol id="icon-close" viewBox="0 0 24 24">
<path d="M23 12c0-3.037-1.232-5.789-3.222-7.778s-4.741-3.222-7.778-3.222-5.789 1.232-7.778 3.222-3.222 4.741-3.222 7.778 1.232 5.789 3.222 7.778 4.741 3.222 7.778 3.222 5.789-1.232 7.778-3.222 3.222-4.741 3.222-7.778zM21 12c0 2.486-1.006 4.734-2.636 6.364s-3.878 2.636-6.364 2.636-4.734-1.006-6.364-2.636-2.636-3.878-2.636-6.364 1.006-4.734 2.636-6.364 3.878-2.636 6.364-2.636 4.734 1.006 6.364 2.636 2.636 3.878 2.636 6.364zM8.293 9.707l2.293 2.293-2.293 2.293c-0.391 0.391-0.391 1.024 0 1.414s1.024 0.391 1.414 0l2.293-2.293 2.293 2.293c0.391 0.391 1.024 0.391 1.414 0s0.391-1.024 0-1.414l-2.293-2.293 2.293-2.293c0.391-0.391 0.391-1.024 0-1.414s-1.024-0.391-1.414 0l-2.293 2.293-2.293-2.293c-0.391-0.391-1.024-0.391-1.414 0s-0.391 1.024 0 1.414z"></path>
</symbol>
<symbol id="icon-atom" viewBox="0 0 24 24">
<path stroke-linejoin="miter" stroke-linecap="butt" stroke-miterlimit="4" stroke-width="0.48" d="M13.68 12.72c0 5.832-0.645 10.56-1.44 10.56s-1.44-4.728-1.44-10.56c0-5.832 0.645-10.56 1.44-10.56s1.44 4.728 1.44 10.56z"></path>
<path stroke-linejoin="miter" stroke-linecap="butt" stroke-miterlimit="4" stroke-width="0.48" d="M12.826 11.404c5.328 2.372 9.385 4.884 9.061 5.611s-4.905-0.607-10.233-2.98c-5.328-2.372-9.385-4.884-9.061-5.611s4.905 0.607 10.233 2.98z"></path>
<path stroke-linejoin="miter" stroke-linecap="butt" stroke-miterlimit="4" stroke-width="0.48" d="M12.826 14.035c-5.328 2.372-9.909 3.706-10.233 2.98s3.733-3.239 9.061-5.611c5.328-2.372 9.909-3.706 10.233-2.98s-3.733 3.238-9.061 5.611z"></path>
<path stroke-linejoin="miter" stroke-linecap="butt" stroke-miterlimit="4" stroke-width="0.48" d="M22.8 12.72c0 5.832-4.728 10.56-10.56 10.56s-10.56-4.728-10.56-10.56c0-5.832 4.728-10.56 10.56-10.56s10.56 4.728 10.56 10.56z"></path>
<path stroke-linejoin="miter" stroke-linecap="butt" stroke-miterlimit="4" stroke-width="0.48" d="M15.36 12.72c0 1.723-1.397 3.12-3.12 3.12s-3.12-1.397-3.12-3.12c0-1.723 1.397-3.12 3.12-3.12s3.12 1.397 3.12 3.12z"></path>
<path stroke-linejoin="miter" stroke-linecap="butt" stroke-miterlimit="4" stroke-width="0.48" d="M14.4 2.16c0 1.193-0.967 2.16-2.16 2.16s-2.16-0.967-2.16-2.16c0-1.193 0.967-2.16 2.16-2.16s2.16 0.967 2.16 2.16z"></path>
<path stroke-linejoin="miter" stroke-linecap="butt" stroke-miterlimit="4" stroke-width="0.48" d="M4.8 17.040c0 1.193-0.967 2.16-2.16 2.16s-2.16-0.967-2.16-2.16c0-1.193 0.967-2.16 2.16-2.16s2.16 0.967 2.16 2.16z"></path>
<path stroke-linejoin="miter" stroke-linecap="butt" stroke-miterlimit="4" stroke-width="0.48" d="M24 17.040c0 1.193-0.967 2.16-2.16 2.16s-2.16-0.967-2.16-2.16c0-1.193 0.967-2.16 2.16-2.16s2.16 0.967 2.16 2.16z"></path>
</symbol>
</defs>
</svg>
